<?xml version="1.0" encoding="UTF-8"?>
<svg id="Capa_2" data-name="Capa 2" xmlns="http://www.w3.org/2000/svg" xmlns:xlink="http://www.w3.org/1999/xlink" viewBox="0 0 1080 2400">
  <defs>
    <style>
      .cls-1 {
        fill: #f3f9fa;
      }

      .cls-2 {
        fill: #e8f2f4;
      }

      .cls-3 {
        fill: #ebf2f5;
      }

      .cls-4 {
        fill: #fafdfd;
      }

      .cls-5 {
        fill: #ecf4f7;
      }

      .cls-6 {
        fill: #deecef;
      }

      .cls-7 {
        fill: #c4e5ee;
      }

      .cls-8 {
        fill: #dfedf0;
      }

      .cls-9 {
        fill: #e0edf2;
      }

      .cls-10 {
        fill: #ebf3f6;
      }

      .cls-11 {
        fill: none;
      }

      .cls-12 {
        fill: #f0f5f8;
      }

      .cls-13 {
        fill: #e4eef2;
      }

      .cls-14 {
        fill: #f8fcfb;
      }

      .cls-15 {
        fill: #e0edf1;
      }

      .cls-16 {
        fill: #eef2f7;
      }

      .cls-17 {
        fill: #e1eef2;
      }

      .cls-18 {
        fill: #deebf0;
      }

      .cls-19 {
        fill: #dceaf0;
      }

      .cls-20 {
        fill: #e9f1f4;
      }

      .cls-21 {
        fill: #e9f2f4;
      }

      .cls-22 {
        fill: #edf2f6;
      }

      .cls-23 {
        fill: #ddecef;
      }

      .cls-24 {
        fill: #effbfc;
      }

      .cls-25 {
        fill: #ebf4f6;
      }

      .cls-26 {
        fill: #b3d8e3;
      }

      .cls-27 {
        fill: #e9f1f5;
      }

      .cls-28 {
        fill: #f0fcfd;
      }

      .cls-29 {
        fill: #eef3f7;
      }

      .cls-30 {
        fill: #f1fbfd;
      }

      .cls-31 {
        fill: #e9f2f5;
      }

      .cls-32 {
        fill: #dceef2;
      }

      .cls-33 {
        fill: url(#Degradado_sin_nombre_18);
      }

      .cls-34 {
        fill: #ddeaf0;
      }

      .cls-35 {
        fill: #f2fbfc;
      }

      .cls-36 {
        fill: #d4eaf1;
      }

      .cls-37 {
        fill: #eff4f7;
      }

      .cls-38 {
        fill: #fefefe;
      }

      .cls-39 {
        fill: #edf3f7;
      }

      .cls-40 {
        fill: #ebf6f8;
      }

      .cls-41 {
        clip-path: url(#clippath);
      }

      .cls-42 {
        fill: #fdfefe;
      }

      .cls-43 {
        fill: #fcfdfd;
      }

      .cls-44 {
        fill: #fdfdfd;
      }

      .cls-45 {
        fill: #dfecf2;
      }
    </style>
    <clipPath id="clippath">
      <rect class="cls-11" width="1080" height="2400"/>
    </clipPath>
    <linearGradient id="Degradado_sin_nombre_18" data-name="Degradado sin nombre 18" x1="510.68" y1="-1.68" x2="514.03" y2="1024.32" gradientTransform="translate(-1020.81 .03) scale(2.88)" gradientUnits="userSpaceOnUse">
      <stop offset="0" stop-color="#9ad1e5"/>
      <stop offset=".34" stop-color="#a2d5e7"/>
      <stop offset="1" stop-color="#f7fbfd"/>
    </linearGradient>
  </defs>
  <g id="Capa_1-2" data-name="Capa 1">
    <g class="cls-41">
      <g>
        <path class="cls-33" d="M302.86.05l-1.85,7.84c-26.91,13.37-47.15,32.49-67.99,53.47C194.03,23.54,151.25,3.55,96.06,12.97,47.19,21.32,8.48,60.38-5.5,107.1l-7.33,4.86c2.34,12.53,2.73,25.85,1.17,39.96,2.8,12.48,2.51,23.47-.89,32.96,9.99-.39,8.65,12.59-1.46,10.8-23.66-8.16-41.85-14.12-67.96-11.97-7.59.63-15.12,1.84-22.62,3.26l-3.26,7.61c-17.2,7.76-31.5,20.76-40.84,37.16-4.04,13.92-11.3,21.82-21.78,23.69-27.75-8.86-56.54-.23-76.39,20.82l-7.53-.26c-3.38,11.89-7.29,24.13-11.72,36.74l-6.67,4.78c2.11,39.72,30.48,70.77,70.01,76.41l1054,.17c20.02-.03,38.53-8.69,51.68-23.67,13.56-15.45,20.67-39.26,19.99-58.92-7.97,3.23-12.97-9.86-6.11-14.42l-7.18-1.69c-17.89-31.49-54.34-34.43-87.18-30.79-7.08-12.05-15.78-22.48-26.12-31.28l-.76-7.55c-17.09-4.2-34.13-5.47-51.11-3.82-7.29,4.23-13.67,5.11-19.15,2.64-3.48-2.08-4.88-7.03-4.21-14.85-11.61-36.92-34.72-69.34-73.37-82.18-40.4-13.43-74.1-6.41-109.95,15.45-14.29-61.83-47.27-115.51-109.07-138.63l-2.44-4.33h1504.71c.63,7.71,3.74,69.7,1.41,72.51-1.27,1.54-2.78,2.8-4.53,3.57-76.8-.58-141.76,48.86-162.57,122.76-1.78,5.1-5.07,6.5-9.9,4.13-76.35-45.5-175.84-9.7-198.9,77.05l-7.09,5.09c.23,17.95,1.61,36.15,4.14,54.6-3.35,12.58-13.37,11.85-17.48,0l-7.26,2.4c-27.17-14.33-61.15-7.55-83.26,13.13l-7.76-.36-2.81,6.93c-33.19,2.47-63.35,15.79-76.88,48.09l-7.12,2.5c6.65,4.95,4.48,8.86-3.23,10.6-.79,2.48-2.34,4.74-4.84,4.92-26.35-2.28-60.9,1.46-61.68,35.01-.64,27.52,21.03,30.53,41.23,33.22,1.09.15,1.96,1.94,2.77,4.2,26.19-1.19,52.37-1.12,78.56.21,175.97-.85,350.82-.24,524.53,1.85,2.18,51,2.34,104.87-.22,155.46.96,63.96,1.91,128.4,2.86,193.31,1.69,52.84,2.14,106.44,1.34,160.81-1.26,5.13-1.66,6.46-7.8,3.12-109.13-89.81-267.14-23.21-280.87,116.99-20.2.58-38.55,5.31-55.07,14.19-13.97,10.87-25.17,24.74-33.61,41.61-45.05-21.34-85.98-21.06-118,21.06-4.07,10.5-9.68,17.08-16.83,19.73l3.73,6.55c-2.73,13.96-3.88,28.15-3.45,42.57-19.7,2.37-37.41,8.6-53.15,18.7-5.9,7.57-12.2,11.61-18.9,12.11,1.76,4.5,2.63,6.75,2.63,6.75-20.28,37.52-6.13,77.54,33.64,93.41l2.74,7.21,537.83-.63c3.67.18,5.61,3.52,5.8,10.01,2.44,33.23,2.36,70.36,0,103.87-2.53,47.07-2.42,97.14-.05,144.27,1.78,124.46,2.27,250.67,1.47,378.63-9.11,5.19-19.83,8.49-32.16,9.9-28.72,9.02-55.81,21.84-81.29,38.44-39.99-59.75-89.85-99.87-161.98-112.17-124.51-21.24-233.88,57.36-265.3,177.48l-6.2,1.03c-128.05-19.53-237.05,80.58-230.46,209.71-.52,8.43-6.04,7.8-13.83,5.77-45.99-17.61-97.8-9.28-136.19,21.48l-17.09,7.79.36,8.02c-14.36,16.16-24.96,34.76-31.79,55.8-.1,5.21-2.42,8.09-6.96,8.63,7.38,5.34,7.27,13.08-2.16,14.26-2.09,11.13-1.3,22.43.1,33.59l6.3,1.59c5.53,21.44,12.79,49.13,36.79,55.72l248.05,1.69,3.45,5.8c50.77,2.73,104.8,2.52,155.66.17l1.99-5.77c99.18-1.09,198.24-.38,297.19,2.12l3.51,3.7c2.21-9.19,31.25-8.96,34.36-.19,1.08-4.83,8.52-3.39,11.74.08l2.68-5.77c59.41-.08,118.85-.16,178.31-.23l3.49,5.77c2.52,115.95,2.52,241.09,0,358.08H-1020.81v-732c18.64,3.57,34.13,14.95,46.47,34.14,33.36,61.51,95.26,99.28,166.3,95.49l9.05,4.95,15.13-2.38c-2.44-7.53,11.58-9.78,16.61-5.42-1.38-1.92-2.51-5.13-1.16-5.93,64-37.67,110.04-52.64,177.01-5.8,36.67,36.59,83.08,52.13,134.04,39.96,14.84-3.55,98.8-46.4,96.09-53.87-7.71-21.29-50.37-47.25-72.05-53.44-32.87-9.39-63.45-3.39-94.9,8.42l-5.09-1.58c4.06-38.47,2.81-75.41-9.54-112.2l2.45-9.79-7.96-6.1c-15.92-47.39-48.71-87.25-91.75-112.42-48.65-28.45-99.08-32.57-154.12-26.22-27.18-95.56-98.65-168.37-198.05-185.65l-8.28-7.39-17.35-1.96c-.57,2.74-1.54,2.75-2.91.19v-970.22c228.49-1.44,457.92-1.6,688.29-.5l1.36-3.21c41.27-10.3,60.39-45.04,51.66-86.27-7.68,3.08-9.38-3.47-2.52-7.78-7.41.02-8.5-2.05-3.28-6.2-10.35-5.98-17.21-13.82-20.56-23.52l-7.27,1.75c-15.07-9.7-32.02-15.42-50.86-17.14l-2.84-6-9.9-2.93c-22.14-23.84-56.47-29.03-85.9-16.13l-7.54-2.79c.71,2.36,1.02,5.68-.75,6.51-19.42,9.15-19.78-20.26-14.79-31.92,4.88-1.53,6.59-6.4,5.14-14.59l-6.81-5.95c-15.74-99.97-125.15-147.69-211.6-98.3-4.82,2.42-8.16,1.06-10.04-4.03-42.6-135.63-215.35-169.99-303.67-57.44l-8.09-.27-.04-468.75L302.86.05Z"/>
        <path class="cls-38" d="M1930.95.03h2.88v2954.63h-2.88v-358.08s-5.77-2.65-5.77-2.65c-.02-54.97-.05-109.96-.07-164.97l5.76-3.44-5.84-3.08-.81-28.9c-43.04,20.89-99.68,12.47-124.22-31.18-9.57-6.96-15.76-14.61-18.56-22.95l-6.84-.61c-24.5-11.52-53.48-9.99-80.87-5.76-44.83-67.11-124.88-90.04-198.14-56.13-69.27-51.85-165.32-16.1-179.23,69.97-26.08-.3-50.5,4.87-73.25,15.51-8.34,5.64-17.22,10.01-26.66,13.13-4.23,10.67-10.26,15.83-18.08,15.47,4.12,7.89.86,9.24-6.87,5.95,6.59,4.72,2.48,7.98-4.85,6.37,2.33,7.16,1.71,7.92-5.28,6.03-2.31,4.15-6.08,7.05-11.29,8.7-.32,2.6-1.24,2.62-2.7.3-1.22,7.65-4.15,9.25-8.79,4.79.28,4.75-3.17,5.39-6.46,2.32-4.06,13-29.64,13.04-40.3,6.99l-5,5.39c-30.41-9.3-61.15-16.94-92.21-22.92-10.8,1.94-19.71.83-26.74-3.32,41.85-43.21,106.36-56.56,162.22-31.81-6.64-92.38,44.1-172.67,126.8-206.94,35.48-14.7,73.04-15.1,111.91-10.94,26.31-117.66,136.97-194.87,255.12-181.13,75.07,7.8,139.5,49.78,175.84,115.33,33.52-26.22,70.2-40.9,111.13-45.65l.12-277.92c-5.45-7.35-.49-14.3-.46-21.06l.34-77.94c-2.42-47.27-2.41-97.04.05-144.27v-103.87c-3.57-7.54-3.57-11.39,0-11.54-2.21-.3-5.38-.84-5.77-2.53-1.67-7.38-2.3-35.64,5.75-37.99l-5.77-2.66c0-41.02,0-82.06,0-123.12l5.77-3.45-5.76-7.39.17-125.22c-16.64,11.24-27.31,27.96-32.01,50.18-49.54-7.63-99.65,8.81-128.58,51.37l-7.38,1.11c4.49,5.66,2,11.56-7.45,17.69-52.08-36.32-98.21-29.58-149.68,3.17-39.86,38.16-92.5,45.9-142.71,24.19-13.29-5.75-36.44-15.78-37.46-30.49,6.18-15.09,14.47-29.49,28.74-41.39,28.97-24.16,72.08-26.02,104.75-3.51,12.38-38.06,46.49-58.38,86.72-54.97,3.2-51.21,27.36-94.01,66.59-124.44,66.38-51.49,159.77-47.02,223.81,8.72l.23-161.91c-2.49-63.39-2.45-130.26.02-193.31-2.52-48.97-2.23-103.23,0-152.93-4.79-4.5-4.76-6.43.09-5.79-2.27-.59-5.68-1.6-5.79-3.34-1.9-31.3-2.2-71.83-.68-103.16-1.86-9.42.03-15.31,5.66-17.68-2.21-.32-5.33-.87-5.74-2.6-1.65-6.85-1.87-36.13,6.14-38.08-5.61-4.37-7.78-12.27-6.52-23.7-10.66-9.37-79.18-19.31-95.9-16.98-37.44,5.22-43.51,34.22-49,66.81-1.88,5.31-4.59,8.81-10.09,7.25-19.51-10.03-41.1-11.89-58.79,2.68-9.56-.77-18.8-.2-27.7,1.73-2.08,7.77-20.98,15.04-28.27,12.27-5.6,7.74-9.27,3.68-14.1-3.14-14.18-42.14-49.17-63.8-91.86-68.18l.96-27.94c8.95-43.98,40.03-79.94,77.89-96.04,45.94-19.54,92.42-14.44,132.53,10.82,20.04-80.24,89.96-131.2,171.1-129.33l.06-70.55Z"/>
        <path class="cls-38" d="M420.48.03c64.96,24.35,102.45,75.51,116.87,142.26,8.92-2.5,17.64-6.65,26.15-12.43,54.88-31.05,152.95,16.19,155.24,79.5.35,9.66.35,21.61-10.16,13.01l-9.24-.88c-68.03-64.15-188.83-44.88-212.25,52.14-22.43,13.27-31.24,8.62-31.29-18.61-7.14-30.78-25.74-49.23-58.18-50.89-20.33,4.82-29.12,2.2-26.37-7.85-8.14-2.1-18.63-21.03-13.78-28.47l-8.08-1.72c-23.82-33.27-61.95-41.28-100.35-43.67-9.11,4.7-17.15,5.31-24.09,1.83-2.07,8.82-5.95,10.29-11.64,4.4-7.59,8.77-17.54,15.94-29.84,21.49l-20.17,22.4-5.09.16c-1.94,10.72-5.59,13.01-10.95,6.84C116.76,124.68,52.77,87.36-5.19,126.19c-7.22,2.48-9.76-2.26-7.64-14.23C1.6,54.91,48.47,10.17,108.67,5.53c48.77-3.76,92.53,13.06,124.39,51.56C252.58,27.37,277.16,15.66,302.86.05l117.62-.02Z"/>
        <path class="cls-14" d="M426.24.03c60.07,23.22,102.95,75.58,111.63,142.72,35.25-26.73,76.67-32.06,117.69-14.72,31.74,13.41,59.45,43.97,65.53,81.7l1.14,18.42c2.95,12.92-20.63,6.55-13.64-5.78,1.94-.05,4.71-.25,6.17-1.39,8.32-6.5-7.44-76.72-80.34-94.98-15.14-3.79-32.68-2.33-49.72-1.14-25.06,1.76-47.61,34.72-53.48,8.9-13.2-58.01-42.5-100.54-97.27-123.9-6.36-2.71-11.62-3.58-13.47-9.83h5.77Z"/>
        <path class="cls-38" d="M610.55,1563.93c17.69,6.56-4.59,33.41-14,41.81-35.57,31.75-80.07,42.32-125.15,23.2-12.91-5.48-38.42-18.88-34.96-33.86-7.11.51-12.35-4.5-15.73-15.04-27.68-87.47-101.81-121.19-189.03-87.31-15.07,10.67-30.94,19.4-47.61,26.19-55.68-63.78-141.87-85.18-216-38.51l-9.67-.43c-.27,6.68-5.7,12.33-16.3,16.97-6.32,4.46-9.42,9.36-9.31,14.69-37.39,44.49-89.59,44.35-135.62,13.77-6.86-4.56-23.74-17.91-20.11-25.65l-8.38-.12c-41.47-31.91-93.1-18.69-132.16,10.54l-8.61-.76c-2.17-.07-1.67-4.73.28-6.21.2-4.4-1.16-9.54-.04-13.94,9.83-23.18,20.12-46.51,30.88-69.99,60.85-89.36,181.26-115.5,275.02-57.31,8.51-42.47,28.84-76.65,56.95-106.8,94.74-101.58,260.09-95.34,348.69,11.7,30.81,37.22,48.84,81.3,52.25,128.89,51.84-18.18,107.72-5.85,147.53,31.6,37.72,35.49,52.39,86.43,37.37,136.08l33.69.49Z"/>
        <path class="cls-34" d="M-139.73,1637.62l4.64-4.26c73.67,37.58,157.01,58.3,240.08,29.24l12.37,1.76,8.91-.56c8.64-4.65,14.72-3.56,18.27,3.27,15.55-3.03,30.82-7.18,45.79-12.44l18.16,6.05c7.13-18.97,35.73-9.16,19.69,9.39,5.2.11,9.99-1.79,14.38-5.69,10.38-.2,20.62,1.07,30.7,3.8l6.03,5.8c5.62-15.82,13.19-20.57,22.71-14.25,2.64,12.15,12.54,10.99,8.84-2.1,6.85-9.41,15.39-6.06,25.61,10.03,10.7-2.32,21.47-1.71,32.31,1.83-13.71-10.4-.76-19.92,12.62-19.56-4.6-8.69-4.04-13.44,1.68-14.25l9.05-.56c25.17,17.89,54.66,30.05,85.89,29.73l72.65-2.22c48.92,29.25,110.7,30.4,152.35-11.71,2.35-6.43,5.44-11.59,9.29-15.46,14.16,30.34,12.76,66.52-6.26,96.97-15.74,25.2-47.94,44.72-80.61,45.49l-63.27,1.49c-107.5-1.21-219.02-2.17-326.4,1.03l-2.37-.48c-7.79-1.97-15.82-1.95-23.66,0h-2.25c-8.69-1.93-17.69-1.99-26.39-.08l-7.95-.06c-20.04-2.16-41.38-2.03-61.46-.09l-19.51.2c-40.93-2.22-83.35-2.11-124.32-.05h-83.64c-27.41-1.95-56-2.13-83.38.24l-5.4.03c-46.69-2.59-95.09-2.19-141.88-.38l-80.09.04c-21.44-1.81-44.45-2.2-65.72.25l-13.06-4.75c-46.7-6.99-77.87-46.79-74.64-92.44l3.14-6.2c13.23-6.51,53.46-19.23,66.45-17.55,1.45.19,2.72,1.75,3.95,3.7,17.26,1.29,34.1.9,50.51-1.19l5.59,6.85c.96-3.04,1.71-2.83,2.26.42,6.28-3.3,12.39-3.5,18.34-.61,22.37,7.36,43.47,14.05,69.15,13.85.98,0,1.97,1.33,2.96,3.06,6.06-3.42,16.11-7.12,20.99-2.07.71-8.39,20-17.08,27.31-13.6,19.73-6.2,39.24-7.64,58.52-4.31l14.15-8.41c20.13.64,38.1-2.58,53.91-9.67,4.75-4.84,8.53-10.46,11.35-16.85,10.27,2,20.82,4.46,31.64,7.36Z"/>
        <path class="cls-10" d="M436.44,1595.08c31.2,42.35,104.21,50.88,148.63,13.37,15.67-13.24,32.66-34.69,25.48-44.52,44.41,6.79,82.73,30.8,101.73,71.51.97,6.35.41,13.83-5.09,19.4-27.5,27.82-66.03,39.65-105,32.95-19.19-3.1-36.14-10.15-53.01-19.74l-71.15,2.56c-36.08.26-67.48-14.4-94.98-34.94-5.41,6.38-10.5,3.08-8.42-4.89-13.5.66-27.17-10.32-34.92-20.99l-7.9,2.35c-62.64-23.75-131.26-14.32-177.93,36.84-10.66,8.48-22.49,17.03-36.53,15.38-63.07,23.65-132.86,23.33-197.82-.49l-59.27-26.25c-16.23-4.75-24.35-7.13-24.35-7.13-1.61,1.64-3.15,2.87-4.46,2.66-55.85-9.05-90.12-9.55-130.25,34.6l-10.52,1.75c-7.31,6.59-18.2,10.88-27.31,13.6-4.63,1.06-7.45.5-8.44-1.7-14.86,6.89-22.62,3.72-23.28-9.51-12.34,3.76-22.95,3.02-31.82-2.21l-1.06-4.98c.91-4.78-3.33-7.11-12.71-6.98-2.32-4.87-1.57-10.29,2.27-16.25-3.12-15.18,7.76-23.76,22.26-23.32,2.15-5.12,3.22-7.68,3.22-7.68,7.54-.5,11.82-4.89,12.85-13.17,17.45-13.39,11.7-25.1-8.76-23.23-24.87-10.37-56.6-9.62-81.25.84,7.62,12.67,6.65,20.06-2.89,22.15,3.01,18.23-10.86,20.42-24.89,18.5-7.87,8.4-31.19-3.09-18.92-10.75,4.27-3.77,2.63-4.03-4.93-.77-.65,16.52-28.43,13.38-27.83-2.38l19.46-15.59c4.38-.2,6.65-1.9,6.8-5.1,42.21-25.6,92.07-33.95,142.97-18.4l-1.04-58.31c.26-.91,2.07-1.45,2.81-1.07l-.28,6.21,5.64,3.8c-3.39,17.38,18.77,31.38,32.83,32.92,5.12,6.48,11.12,12.27,18,17.38,8.26-10.34,17.93-18.54,29.01-24.59,9.12-6.73,17.6-8.28,25.41-4.64,4.01-8.5,10.91-14.67,19.9-17.43-.9-14.1,5.22-19.8,18.34-17.1l23.7,21.14c34.52,26.53,86.24,28.24,117.96-3.11,13.72-13.56,24.84-27.25,39.67-37.81,20.79-8.5,20.71,11.53,6.52,22.92,4.55,8.47,13.37,6.81,26.45-4.97,20.68-9.26,56.42-20.71,48.14,15.69,12.87-.35,22.66,14.76,23.86,26.88,21.75-21.49,42.84-17.91,62.47,2.61l7.25,3.67,31.52-8.12c9.64-5.2,19.75-9.07,25.64,3.23,8.74-5.26,15.81-5.13,21.22.38,21.87-3.84,42.52-3.05,61.93,2.36,9.78,15.19,16.32,18.82,19.59,10.87,8.63.11,17.61,3.16,26.95,9.15l21.28,22.71,62.78-.31c5.58,1.9,10.08,5.98,13.49,12.22,7.57-6.52,13.88-7.92,18.92-4.2Z"/>
        <path class="cls-34" d="M-78.44,320.64c1.26-8.12,4.42-7.97,5.87.14l27.65-7.93c9.19,3.05,18.3,3.38,27.33.98,43.66,4.23,87.45,3.43,131.36-2.39,12.88,3.56,25.42,4.05,37.64,1.49,12.76,7.72,24.85,8.66,36.26,2.81,6.64,2.75,12.47,1.52,17.51-3.71l17.1,5.07,7.45-2.98c23.39,9.64,50.49,9.91,73.01-2.3l7.81,2.04,6.04-2.12c12.73,7.96,35.4,6.65,49.3,4.33,19.82-.16,40.1-.04,58.58,1.6,5.89-3.65,13.9-4.09,24.04-1.31,9.62-2.46,17.62-2.29,24.01.53,44.51.12,90.58.14,135.81-.13,7.48.35,12.94,2.34,16.38,5.96,2.74-3.14,8.14-4.33,16.17-3.58,79.32-9.08,167.65-10.86,244.53,8.89,13.98-4.53,22.25-3.16,24.83,4.1l4.68-4.07c-2.09-8.76-2.67-17.9,8-16.57,11.6,42.77-23.88,88.31-71.59,88.35l-764.88.61-284.82-.62c-44.86-.1-79.98-41.81-74.38-82.34,5.68-1.89,6.72.62,2.52,4.99,4.22,1.66,6.48,5.58,6.76,11.78l5.09,7.36c-4.11-22.2,8.77-33.3,38.65-33.33,15.18-.55,30-.04,44.47,1.54l8.98-1.09c12.09,11.85,29.29,13.38,45.38,14.19,14,.7,28.52-.67,42.48-2.3Z"/>
        <path class="cls-38" d="M1348.68,676.95c21.39,19.78,47.47,47.23,38.76,79.57-1.97,7.33-4.12,11.22-10.6,5.16l-6.71,1.27c-54.55-79.17-149.34-80.41-202.63.09-32.31,30.34-74.2,45.02-109.76,11.32-3.56-3.37-16.94-19.72-11.46-23.22l-7.82-2.01c-39.82-58-124.49-43.11-165.66,6.19l-8.53,1.18c8.12,3.58-17.3,32.41-19.75,33.72-8.31.37-16.26,1.55-23.86,3.53-1.75,5.64-7.47,9.03-17.15,10.18-6.32,4.81-11.99,6.34-17.02,4.58l-6.76,3.94c-15.74,1.9-74.81-29.85-80.83-40.2-2.07-3.56-2.16-4.72.65-9.13,30.78-28.89,73.54-42.18,117.48-25.66,1.88-44,18.45-84.39,51.26-112.66,54.34-46.82,131.07-47.18,187.23.02,14.89-48.5,53.51-81.8,98.63-92.48,49.61-11.74,102.5,5.74,133.34,44.23,20.55,25.65,29.24,54.92,25.97,87.54,13.48,3.04,24.62,6.85,35.19,12.82Z"/>
        <path class="cls-19" d="M947.93,839.67l6.13,4.32c15.39-2.27,23.69,5.69,15.14,19.95,11.69-1.39,16.88,2.99,15.58,13.13,16.47.26,32.97.84,49.51,1.75,7.5-8.14,13-6.65,22.47-3.45,7.13-4.65,15.4-5.03,24.78-1.13,20.3,2.49,37.14-2.13,50.51-13.86,16.79-3.79,34.08-1.9,51.86,5.66,15.84-.84,30.49,1.59,43.95,7.3,15.74-2.43,32.06-2.25,47.43,2.34,16.45-11.11,34.3-20.18,54.08-12.92,6.98-7.35,17.09-7.94,30.33-1.76,4.66-8.94,11.99-9.56,20.88-8.02,2.74-13.3,13.43-16.84,32.08-10.63l7.07-4.72c29.4,4.69,57.22-3.72,79.49-21.99,8.42,21.5,7.34,46.21-7.55,66.99-11.2,15.63-32.42,31.4-57.49,31.4l-730.48.05c-3.54-3.12-3.87-4.16-.99-3.14-23.83-12.71-48.97-31.91-45.5-61.72,22.2-28.95,61.36-27.68,93.86-19.74l8.66-2.3c5.15-5.01,10.06-6.59,14.72-4.73,10.73-6.85,28.86-6.91,24.4,9.51,5.31,1.45,9.95.84,13.91-1.81,9.27-18.08,27.72-11.4,16.33,5.96,0,0,4.15-.17,12.44-.52-11.46-17.65,7.38-23.93,21.2-14.05,8.41-2.63,16.77-5.45,25.09-8.47,10.05-.04,20.42,3.55,31.08,10.8,12.93,2.79,22.62,8.06,29.07,15.81Z"/>
        <path class="cls-22" d="M708.58,222.38c2.99,3.01,4.61,7.66,12.03,7.88-1.02-7.31-.72-13.94.47-20.52l4.21,14.85c8.35,6.89,16.97,9.86,25.85,8.89,10.35-5.86,18.28-6.61,23.8-2.24,3.98,1.12,7.19,3.66,9.64,7.61,30.99,13.98-6.65,30.48-22.49,35.75l-6.63,4.9c-20.49-2.37-41.5,1.12-59.3,11.73-23.73,21.06-36.36,25.41-66.54,28.54-2.37.25-3.61-.23-4.2-3.16-7.57,6.43-20.5-.55-27.61-7.03-36.79-47.57-81.1-36.79-114.06,6.82-5.06,3.2-8.81,3.37-11.25.49-15.39,7.52-32.74,6.19-48.04.78-5.66-.8-8.74-2.58-9.25-5.34-3.67,1.73-8.36-.09-6.7-4.36l-6.35,1.72c-12.89-17.97-28.32-30.11-46.29-36.43l-1.64-3.62c-2.25-2.62-5.01-2.24-8.3,1.12l-19.24,24.53c-12.51,11.49-16.7,5.68-23.57-8.09-19.47,11.57-20.05,2.02-20.85-16.2-5.12-6.7-11.93-11-20.43-12.9-7.98-14.66,7.34-37.03,19.61-44.68l5.33-14.2c6.39-.05,13.17.28,20.33,1,12.39,9.55,21.05,9.92,26,1.12,8.11.51,13.1-2.79,14.98-9.9l5.93-3.98c5.81,2.57,11.55,5.51,17.24,8.81,2.9,4.55,6.45,5.18,12.27,3.76,22.11-5.42,43.98,2.79,59.96,17.6,14.62,13.55,19.65,34.29,19.8,58.3,6.12-.64,12.99-3.23,19.69-5.65,7.71-33.51,26.68-59.7,57.01-75.77,57.01-30.22,124-17.09,168.6,27.86Z"/>
        <path class="cls-10" d="M1376.84,761.68c5.08-3.83,11.61,1.76,10,3.92-3.11,4.17-8.93-3.5,2.23-1.17-.4,1.74-.8,4.51.3,6.36.8,1.35,3.89,1.75,5.42,1.83l6.57.42c20.43,20.49,48.93,36.91,78.84,30.7-1.26-5.45.12-9.15,4.13-11.08,7.4,5.56,11.53,14.45,14.87,22.97.88,6.38-3.01,9.97-8.23,13.21-25.21,15.64-50.94,18.42-78.33,13.51-22.3-1.75-44.42-4.17-66.38-7.27-11.99-2.76-16.87-7.88-14.65-15.38-15.75-2.93-31.52-5.38-47.31-7.34-5.03,7.51-11.28,13.4-19.65,6.24-17.89,15.47-56.38,20.38-71.08-.59l-2.25.66-9.88,2.14c-53.27-25.1-103.91-9.37-153.48,16.24-25.3,8.84-56.85,15.34-80.03,2.62-21.16-5.42-42.37-13.73-60.15-26.61l-7.62,1.72c-15.74-10.71-34.25-17.54-53.45-15.92l-6.04-5.11c2.01-6.01,13.14-2.17,16.9-4.1l26.7-33.15c5.85-5.17,12.65-3.58,20.4,4.76,6.52,11.03,12.33,13.64,17.44,7.85,25.31,6.34,49.89,6.29,74.92-1.52,7.5,4.14,15.39,6.25,23.66,6.34,14.39-5.15,28.41-6.13,42.04-2.96-16.89-8.75-12.94-33.32,3.54-19.82l10.91,13.9c13.17,16.77,33.45,24.96,53.88,22.03,22.53-3.24,40.03-13.7,54.11-30.11l22.57-26.32c49.46-50.16,131.22-42.69,172.71,13.29,5.38,7.25,11.4,12.2,16.37,17.76Z"/>
        <path class="cls-38" d="M1089.3,1938.2c6.51,5.01,3.82,10.62-8.09,16.81-5.08,8.01-11.09,14.59-18.02,19.74-28.9-19.07-47.78-15.11-74.13,6.14l-6.66-2.25c-22.3-22.52-43.08-18.33-65.88.82-12.06-13.06-25.85-19.85-41.39-20.37-10.44,3.87-18.47,3.83-24.1-.11-9.35-56.86-86.76-53.52-95.08,2.21-2.02,5.9-5.19,7.29-10.78,4.09-2.65,3.72-7.05,4.91-13.2,3.55l-9.51,3.19c-6.49,5.76-12.99,11.51-19.48,17.24-10.58-8.02-21.86-14.92-33.83-20.71l-2.83-7.08c-29.08,4.14-40.03-1.8-32.85-17.8.62-.8,2.16-1.3,3-1.73l11.18-12.49c15.02-12.17,34.85-13.6,56.61-6.67-7.59-41.07,12.84-78.32,49.27-90.3,36.08-11.86,75.17,2.32,94.42,39.02,25.02-23.68,57.49-29.22,87.18-14.18,26.4,13.37,44.03,41.61,42.67,73.39,17.9-5.13,30.4.12,40.91,10.93,21.51-17.57,48.97-17.23,70.59-3.44Z"/>
        <path class="cls-13" d="M534.84,1991.07c22.39-24.55,59.31-7.46,74.88,17.22,15.85-.67,31.76-1.56,47.72-2.66,15.23,6.35,30.74,11.06,46.54,14.15,22.7-6.53,43.95-18.8,63.74-36.82l7.13,3.31c1.2-7.46,7.44-9.44,18.72-5.93,25.85,10.72,52.87,17.99,81.07,21.79,12.35,1.46,20.28,5.82,23.81,13.1l29.47-4.77c16.73-9.6,35.19-19.98,55.28-17.53l5.11-4.13c21.17,13.8,40.58,16.84,58.23,9.12,18.88-22.02,37.01-32.45,66.39-25.43,2.4,3.31,5.9,3.6,11.03,4.18,19.34,2.2,33.73,20.27,32.88,39.01-.75,16.64-15.14,35.97-36.37,35.91l-562.06-1.58c-24.81-.07-33.53-43.54-23.56-58.94Z"/>
        <path class="cls-29" d="M158.22,172.7l3.09,2.5,21.82-24.75c12.37-5.89,22.44-13.16,30.19-21.8,3.9-1.6,7.57-3.07,11.64-4.4-1.46,3,2.46,3.7,11.77,2.09,11.63-6.2,23.46-4.39,35.5,5.45,17.7-11.18,29.33,7.15,11.86,18.03-5.7,9.01-5.3,14.89,1.21,17.62,4.24,5.52,5.1,8.89-2.43,11.25-3.27,4.04-7.09,8.23-11.46,12.57-20.44.8-40.35,6.84-59.73,18.13-8.75-2.66-16.02-.31-21.81,7.06,7.59,1.16,6.97,3.68-.52,5.08,6.7,8.81-9.91,15.51-17.95,17.89-4.15,1.23-48.03,2.75-39.3-8.5-2.79-6.81-11.72-4.86-17.61-3.28-3.38,6.15-10.61,6.32-21.7.53-12.82,5.98-26.45,10.36-40.87,13.14l-5.91-4.08c-4.37,3.17-10.64,2.13-14.96-.13,1.36,5.75-1.04,6.08-3.4.36-6.61,4.77-13.34,5.81-20.21,3.14-.62-12.09-5.11-24.56-13.46-37.41,1.95-8.74,1.43-15.38-1.56-19.93-.1.27-.14.53-.1.78.78,5.25,3.59,9.39,2.71,16.77-6.92-4.23-4.4-10.42-3.82-14.48l-1.67-1.63c-.04,2.56-.76,2.55-2.08.18-6.75-23.75-6.25-49.32-.28-72.92l1.95,11.12c61-42.15,128.42-8.65,164.14,55.8l4.95-6.18Z"/>
        <path class="cls-44" d="M326.47,2203.03c2.6,14.74-1.67,20.31-12.82,16.71-22.66,5.36-44.73,11.84-66.22,19.46-8.89-14.17-19.99-20.98-33.31-20.42-12.45,7.51-23.52,9.17-33.21,4.97-19.18-24.95-44.14-10.79-52.72,14.75l-5.15,5.02c-17.89-3.11-35.04-1.77-52.78-.02-12.98-24.85-29.7-46.56-60.83-40.88-8.25-.35-3.91-10.73-1.32-16.68,6.01-8.31,12.38-19.65,21.62-25.49,19.15-12.11,40.8-14.59,63.13-6.58,11.92-32.04,43.54-49.65,77.48-44.98,30.13,4.15,52.75,30.15,60.58,62.74,20.92-13.98,39.93-17.9,61.78-9.27,15.71,6.2,30.8,21.12,33.77,40.66Z"/>
        <path class="cls-21" d="M445.22,2271.66c16.64,3.99,30.77.96,32.59,15.21.86,6.72-4.51,16.31-13.58,16.65l-34.92,1.29c-139.32-.4-278.74-1.15-418.26-2.23l-68.55-.31c-7.27-.03-15.48-4.17-18.98-8.67-3.27-4.19-5.6-12.44-2.94-18.1,4.07-8.67,11.85-13.89,18.25-18.98,4.96,3.2,10.28,5.19,15.96,5.98,7.39-2.46,14.89-3.74,22.5-3.83,9.52-13.34,37.61-11.01,49.44-3.51,10.92-3.29,19.68-.92,28.29,5.95l40.93-14.49c10.31,5.13,19.84,6.82,28.58,5.07,8.17,9.66,18.08,7.58,29.72-6.25,14.67-4.87,30.41-7.25,47.24-7.13,9.43,8.58,20.67,15.79,33.71,21.62,21.9-6.82,40.14-12.18,61.32.58,13.85.24,28.19-2.52,43.01-8.27,0,0,11.79,4.21,35.38,12.64l9.46-2.7c20.55-22.67,48.91-17.42,60.83,9.48Z"/>
        <path class="cls-42" d="M916.82,1133.02c19.11,7.91,34.94,19.21,43.41,38.01l6.81,27.73c14.05-1.06,25.5-1.69,39.7,3.3,9.87,6.32,16.74,14.86,19.9,26.53-2.92,16.49,2.15,25.19,15.2,26.1-2.44,15.91-25.12,25.97-40.09,25.13-8.13-.46-23.27-3.63-18.61-13.56l-6.26.36c-12.22-39.05-42.18-48.26-76.06-26.1-20.28-16.88-44.4-28.34-68.86-12.49-16.5,20.28-34.1,26.5-52.83,18.66-13.68-15.52-28.72-20.81-45.1-15.85l-4.74-4.35c-4.18,2.98-4.73-.61-4.45-5.14,1.55-24.79,55.14-52.95,79.59-41.8l13.31,6.09,5.42-11.2c20.17-36.26,53.14-51.3,93.63-41.43Z"/>
        <path class="cls-12" d="M326.47,2203.03l2.41,15.85c.59,3.85,10.63,6.4,14.3,5.25,2,9.22,5.44,16.59,10.32,22.11,6.93-3.46,28.86-12.83,34.9-9.1,1.07.66,1.9,1.71,2.66,2.88l12.31.43c22.06-3.91,38.91,10.76,41.85,31.21-12.34-13.89-36.12-26.81-50.32-10.72-10.36,11.75-26.82,13.05-39.97,2.83-24.77-19.25-36.16,17.44-72.02-2.75-12.56-7.07-31.01.53-43.66,4.1-10.38,2.93-15.14-6.8-22.18-10s-15.73-1.89-16.96-12.98c-5.39,5.26-11.95,4.12-19.02,3.34-35.78-3.98-37.94,35.72-56.97,11.04-9.5,8.22-21.44-5.06-28.72-4.24-15.84,6.97-40.95,15.47-41.61,15.03l-9.19-6.07c-5.85-3.86-14.25-.47-21.11.29l-5.28-6.66c-19.02,4.66-29.35-7.67-39.02,11.91-9.09-8.19-17.64,5.97-33.78-.02-3.35-1.24-6.14-5.35-6.57-10.24,15.06-11.99,17.42-44.28,60.52-37.02,2.42-12.86,2.34-24.67,8.75-33.54-.5,2.67-2.41,5.71-1.14,11.47,31.64-6.75,55.59,13.09,65.36,41.77,16.19-4.48,32.3-5.24,49.12-.33,4.84-8.48,7.58-17.71,14.68-24.38,13.62-12.81,33.01-13.33,45.19,1.62,12.9,15.84,21.46-9.67,46.25-2,7.36,2.28,15.5,8.25,20.83,20.91,13.24-11.72,26.67-10.99,42.59-13.73,11-1.89,21.39-11.95,33.51-5.15l1.97-13.11Z"/>
        <path class="cls-10" d="M1222.93,2417.76l-1.84,7.44c-20.29,16.37-39.51,33.97-57.66,52.79l-5.74.11c-51.3,42.01-147.34,38.85-208.21,5.96.49-5.06-.05-11.08,5.34-16.16,4.93-22.9,17.97-40.73,33.05-56.3,49.86-11.39,89.13,19.28,123.95,20.85,13.26,3.47,27.48,3.94,42.69,1.4,3.45,11.1,11.06,13.75,22.81,7.95-13.26-3.68-20.13-13.39-9.94-23.45l2.7-.3c4.5-2.07,8.26-4.97,11.29-8.7-.05-3.11,4.02-4.37,5.28-6.03,2.31-4.69,9.87-.18,9.35-.25-3.38-.44-6.02-2.36-4.5-6.12l6.87-5.95c3.53-1.81,6.18-1.88,7.75,1.48,1.53-9.68,19.53-28.77,28.15-20.21,11.1,11.02-8.08,27.63-17.21,35.11-2.95,2.98-.99,6.44,5.87,10.38Z"/>
        <path class="cls-37" d="M1089.3,1938.2c11.86,7.56,20.42,20.67,23.62,34.28.39,1.15-1.51,6.03-3.43,6.49-17.96-6.47-37.84-1.63-49.86,14.35-10.13,13.46-27.65,19.8-44.47,12.83l-31.97-13.24-10.39-.23c-15.14,4.51-30.28,8.59-45.42,12.22-7.96,9.54-17.21,10.16-28.94,10.31-9.15-1.7-16.91-5.87-27.32-7.96l-55.55-11.16c-13.69-6.34-25.38-14.59-40.73-9.84-6.02,2.22-9.87.2-11.55-6.07-9.73,2.86-21.72-4.67-18.11-14.93,3.51-1.85,5.61-5.13,6.47-9.82,5.07-27.75,29.95-45.72,58.02-43.11,25.78,2.39,44.3,20.82,46.39,46.66,20.72-11.83,46.94-4.99,60.6,16.16,10.65-13.22,22.58-18.06,37.56-17.87,12.61.16,24.35,11.19,34.26,18.76,26.12-23.59,46.96-27.2,74.4-5.95,6.79-8.58,10.39-17.01,17.99-22.32,4.14-2.89,9.42-3.81,8.43-9.6Z"/>
        <path class="cls-18" d="M962.04,1275.47c10,1.54,19.95,3.44,29.84,5.69l24.71-1.59c18.94,11.29,38.27,8.79,53.41-5.47,4.19,7.52,2.45,23.68-2.33,31.52-4.06,6.66-15.05,17.39-25.23,17.42l-364.35,1c-15.5-10.74-27.81-21.65-22.47-38.16,23.11-6.39,46.54-5.58,70.3,2.43,9.27-2.7,17.87-7.77,25.79-15.2l5.95,3.68c4.72-12.82,24.46-7.77,35.99-4.36,33.67,17.89,74.89,23.36,102.15-7.68,12.69-8.98,27.89-10.78,42.86-7.33,8.74,2.01,27.07,7.7,23.39,18.03Z"/>
        <path class="cls-44" d="M143.16,931.14c34.74-8.08,61.61.75,75.61,36.04,2.1,20.59,18.9-11.63,53.94,3.54,12.35,5.35,24.33,17.84,27.34,32.99l1.12,21.5c-11.38.06-22.47,1.61-33.27,4.65l-6.79.21c-14.57-35.44-49.86-49.83-74.65-14.58l-7.01.4c-1.95,4.18-6.1,6.34-12.44,6.46-10.34,7.25-19.69,15.89-28.05,25.93-14.34-8.03-24.32-10.95-40.71-8.77-3.52-14.35-10.36-25.58-20.55-33.67-13.66-3.92-17.72-10.58-12.18-19.97,11.63-16.11,28.8-22.71,48.47-23.2,6.83-12.92,15.4-26,29.15-31.52Z"/>
        <path class="cls-23" d="M256.09,1053.12c1.29-7.78,7.9-10.69,19.83-8.73,9.81,3.73,19.46,8.02,28.96,12.86,19.18-4.6,37.12-3.2,53.83,4.21l11.32,1.16c7.26-2.21,12.84-1.44,16.72,2.3,2.86,14.36-7.78,28.21-24.33,28.23l-325.11.26c-20.51.02-36.23-12.75-35.6-32.22l3.65-3.23c12.11,3.21,24.26,5.89,36.44,8.03,14.71-9.82,29.02-12.18,42.94-7.06,25.83-20.99,60.86-14.35,84.64,5.57,1.87-8,7.11-9.89,13.96-5.46-.26-3.8,2.78-6.92,9.11-9.36,1.33-6.96,7.15-8.2,17.46-3.71,9.22,6.95,18.45,9.73,27.7,8.33,8.17-4.95,14.33-5.33,18.48-1.15Z"/>
        <path class="cls-44" d="M-14.51,200.74c6.25-4.62,11.55,1.76,15.9,19.12,5.77-.28,4.36,2.92,1.25,7.75,2.03,5.84,1.37,11.99.11,17.93,3.98,1.68.95,8.95-3.39,8.22,5.75,9.79-7.19,17.59-13.68,8.53l-9.62,2c-60.54-28.01-120.99-15.81-175.37,15.8l-18.14,2.32c1.22,8.26-5.55,8.27-8.08.67-13.14,8.42-43.83,17.24-28.85-7.1,21.73-25.46,56.41-38.11,90.85-23.86,9.32-31.5,30.23-54.12,58.95-65.15,29.67-6.02,66.7-7.3,90.07,13.77Z"/>
        <path class="cls-25" d="M627.01,1962.21c1.72-7.54,5.99-7.66,12.84-.36l26.48-.38c13.95,4.41,26.29,11.58,36.66,23.61,9.44-17.92,26.49-26.66,42.2-19.81l13.12,12.2c3.39-3.89,5.35-8.38,11.51-9.44,2.33,8.78-2.88,14.79,5.04,18.23-25.17,7.78-51.8,59.25-100.89,30.82-24.59-14.24-43.62,2.14-67.41-4.3-16.33-25.27-48.96-36.19-67.54-21.09-1.04.84-3.03,1.74-4.16-.63l11.71-18.08c23.43-19.22,54.67-18.65,77.64,1.09l2.82-11.86Z"/>
        <path class="cls-15" d="M762.1,274.59c6.98-5.04,15.62-4.19,25.94,2.55,40.97,25.85,77.53,32.93,123.54,15.3l5.21,4.64,6.11,14.42c-4.44,4.77-4.48,11.21-.77,17.97-4.08,3.02-7.49,7.8-13.02,9.66-3,1.01-5.69-6.09-5.43-11.03-8.11,5.9-13.57,7.17-23.34,4.82l-20.35-4.9c-12.88-7.98-58.75-5.61-90.85-8.05-35.22-2.68-68.23-2.77-102.69,1.73l-41.77,1.03c-8.05-.66-7.03-4.94.73-6.12,19.17,2.38,39.75-8.16,55.34-21.42,23.05-19.6,52.47-25.34,81.33-20.6Z"/>
        <path class="cls-31" d="M916.8,297.08l-35.18,8.81c-52.9,13.69-82.42-25.21-119.52-31.31,10.95-18.62,30.83-15.16,29.38-24.55-.8-5.2-14.58-2-16.54-18.8.62-7.3,7.49-9.12,20.61-5.47,12.15,7.91,22.24,19.05,29.14,34.42,36.99-8.68,78.36,4.48,92.1,36.9Z"/>
        <path class="cls-20" d="M179.46,1015.89c8.08,5.14,13.84,12.54,5.97,21.4-3.63,4.09-6.84,7.96-10.51,13.3,2.26,7.51.41,12.14-5.55,13.89-10.51,1.65-17.29-5.11-27.95-9.29-11.34-4.45-30.08-4.93-41.01.65-7.26,3.71-12.02,12.1-21.7,7.49s-18.24-1.02-26.81,4.72c-16.15,10.83-33.45-4.44-50.21-6.87.18-5.52.46-9.73,3.12-14.78,12.94,7.36,18.84,2.69,27.92-7.23,7.26-5.67,14.49-10.89,21.69-15.66-.87-13.79,3.46-27.05,11.11-37.64-.03,2.12-.15,4.7,1.08,7.51,2.14,4.9,30.32,4.99,34.01,42.51,13.78-5.78,26.01-2.62,37.74,7.95,11.79-18.05,22.59-31.2,41.09-27.94Z"/>
        <path class="cls-31" d="M786.5,808.52c6.1,7.63-4.22,14.8-12.09,13.92-9.71,11.18-20.71,15.61-35.74,11.06-27.48-8.33-55.6-1.91-76.77,16.39-1.29,1.11-4.04,0-4.73-.67-2.36-4.31-2.7-10.56-1.03-18.73,2.76-16.09,11.9-28.16,22.36-41.16l21.07-26.2c2.11,6.26,8.36,7.9,13.49,11.67,22.44,16.53,45.92,31.43,73.45,33.72Z"/>
        <path class="cls-31" d="M723.08,1229.8l6.41,2.31c6.19,15.44,17.78,27.13,34.75,35.07,1.77,3.88-.42,7.09-6.58,9.62-11.75,3.48-20.23,24.25-44.94,14.92-17.76-6.7-36.39-6.26-53.89-.16-1.63-.28-2.83-4.42-3.21-5.68,8.54-26.42,35.28-39.35,65.02-33.22-2.78-11.78-.71-20.59,1.77-29.54,4.14-.09,4.42,4.5.66,6.67Z"/>
        <path class="cls-2" d="M304.66,1026.84l7.5.15c9.55,15.43,19.18,20.42,28.9,14.98l6.89.26c17.17-3.06,36.14,4.78,38.79,22.68-17.6,7.3-36.77,2.47-54.15-8.48-15.84,9.46-33.71,10.23-47.37-3.56-9.86-4.5-20.22-3.43-29.14.25-14.86-5.24.28-27.13,11.82-23.26,5.72-9.62,19.47-13.26,30.85-8.09l1.29-18.06,4.61,23.13Z"/>
        <path class="cls-31" d="M1070.01,1274.11c.52,6.77-2.98,13.33-11.38,13.93-14.01,7.79-29.32,5.08-42.87-2.99-19.35,4.06-39.03,2.8-53.72-9.59,3.7-6.67,13.81-13.34,21.11-9.2,15.73,14.88,41.92,6.98,54.5-10.54l-12.33-5.84,1.33-21.29c1.59,5.87,2.97,12.28,1.94,20.4,18.3,2.5,33.27,10.47,41.42,25.11Z"/>
        <path class="cls-32" d="M429.31,2304.81l-412.16.85c-3.78,0-5.33-1.39-6.1-3.08l412.07-.05c3.74,0,5.36,1.06,6.19,2.28Z"/>
        <path class="cls-14" d="M795.56,225.76c-5.88,4.71-14.05,3.16-20.61,5.47l-20.99,7.38c-8.57,3.01-15.6.61-23.37-4.05l-5.87-3.53c-2.05-1.23.48-4.67.58-6.45,21.57-14.86,48.81-12.78,70.26,1.18Z"/>
        <path class="cls-43" d="M391.06,2240.02c-13.17,3.95-28.95,5.46-41.52,15.95l-8.4-18.57c-2.28-5.04-1.12-9.74,2.04-13.27,16.06-9.25,39.62-3.12,47.88,15.89Z"/>
        <path class="cls-26" d="M1042.45,1323.05l-364.35,1,364.35-1Z"/>
        <path class="cls-4" d="M54.43,1023.5c.86,13.75-14.93,12.11-29.63,32.23l-18.04-.62c-1.45-2.32-1.62-5.6-1.94-8.72,9.51-18.04,29.05-28.92,49.61-22.89Z"/>
        <path class="cls-7" d="M562.15,1779.39l-326.4,1.03c.83-2,2.59-3.04,6.14-3.04l313.97.03c3.33,0,5.17,1.14,6.28,1.98Z"/>
        <path class="cls-22" d="M27.64,237.45c4.52,7.21-3.97,13.9-10.6,9.02l-5.97,3.64c-4.16,8.56-12.79,17.22-11.71,3.66l3.39-8.22c1.26-5.95,1.89-12.06-.11-17.93-5.59-8-8.07-22.3-17.16-26.87-4.05-3.17-5.04-4.83.51-5.06,2.59-3.02,2.52-7.07,1.46-10.8l2.08-.18c1.07-.1,2.08-.75,2.88-1.45,1.7-1.47,3.61-1.48,5.23-1.03,10.1,2.83-6.1,19.35,6.47,37.06,5.2-5.03,11.43-8.09,17.26-2.97-8.53,3.63-11.05,6.17-10.4,15.19.13,1.87-1.42,6.36,1.83,7.51,2.52.9,7.16,1.13,9.79-1.23-2.84-2.68-4-4.18-3.64-5.52.53-1.95.94-6.37,3.52-7.97l5.16,13.15Z"/>
        <path class="cls-40" d="M347.95,1042.23c-3.53,6.5-10.86,9.63-17.88,7.96-7.23-.89-10.36-6.32-15.57-12.21l-9.84-11.14c16.81-8.51,36.05-2.03,43.29,15.39Z"/>
        <path class="cls-30" d="M916.82,1133.02l-27.5-.62c-21.73,2.17-44.22,9.57-54.07,29.91-2.98,6.16-5.33,11.37-12.07,12.15,13.37-37.37,57.78-56.27,93.63-41.43Z"/>
        <path class="cls-35" d="M804.45,1179.56l-31.9,1c-10.88.18-16.58,10.06-24.15,16.02-13.43,10.59-27.41,21.76-19.09,29.92,1.77,7.96-.83,9.41-6.24,3.3l-.66-6.67c9.69-34.88,47.32-54.37,82.03-43.57Z"/>
        <path class="cls-7" d="M92.17,1779.9l-124.32-.05c.92-1.27,2.84-2.49,5.71-2.49l112.67-.02c2.96.07,4.91,1.23,5.94,2.56Z"/>
        <path class="cls-1" d="M666.32,1961.47l-32.57,7.77c.99-3.82.38-8.62-1.07-9s-4.42,1.54-5.68,1.97c1.51-6.37,2.38-13.28,6.46-18.54l.31,12.17c12.47.52,22.6,2.49,32.54,5.63Z"/>
        <path class="cls-36" d="M657.18,849.21c.6,15.99,7.1,27.18,18.46,38.02,8.29,7.91,13.32,20.77,28.3,21.34,1.86.38,2.77,3.49-.27,5.5-35.97-11.88-57.86-48.15-47.53-83.59l1.03,18.73Z"/>
        <path class="cls-24" d="M1006.74,1202.07c-8.56,1.57-16.39-.35-25.19-3.76-3.38,2.47-6.09,4.28-8.67,4.03-3.82-.37-9.01-3.98-9.78-8.66l-2.87-22.65c3.47,7.71,8.16,15,7.12,27.22,15.91-6.19,28.41-3.22,39.39,3.82Z"/>
        <path class="cls-28" d="M218.77,967.18c-15.57-13.83-17.1-35.35-43.32-35.27l-32.29-.77c15.41-6.19,32.48-8.34,50.07,1.08,11.61,6.21,24.09,19.1,25.54,34.96Z"/>
        <path class="cls-7" d="M173.15,1779.79l-61.46-.09c1.1-1.15,3.04-2.22,5.92-2.41h49.37c2.88.28,4.88,1.24,6.17,2.49Z"/>
        <path class="cls-7" d="M207.48,1779.93l-26.39-.08c7.8-3.86,18.6-3.76,26.39.08Z"/>
        <path class="cls-7" d="M233.39,1779.94h-23.66c6.84-3.91,16.87-3.95,23.66,0Z"/>
        <path class="cls-1" d="M647.66,1929.45c-1.92,5.8-6.07,9.91-11.18,12.49-.87-8.22,6.96-9.07,11.18-12.49Z"/>
        <path class="cls-3" d="M357.47,167.8c5.6,9.03,11.65,17.97,13.78,28.47-1.94,2.19-4.87,3.02-7.05,2.59-3.55-.7-6.84-3.47-9.6-7.41-3.48,6.37-5.46,11.68-10.02,14.99-1.22.88-5.55-.87-6.9-1.47-1.81-.79-3.46,6.28-5.43,7.17-9.8,4.41-20.41-2.23-30.71-8.6l-4.13,15.51c-5.93-6.03-3.97-10.9-3.76-16.97-6.79,1.86-7.52,7.98-4.63,15.57-11.12,1.23-16.08,7.44-20.47,13.39-6.01,8.15-4.3,17.87-2.24,25.36,9.27-3.29,14.43,4.89,18.47,8.53,6.03,5.44,4.42,15.85,3.15,23.46l18.74-9.46c2.17,7.15,5.61,17.41,12.97,17.93,15.25-8.87,15.29-24.57,31.1-32.44-.5-2.89,2.27-4.39,2.84-3.28.72,1.41,6.02,1.53,6.04,2.79.02,1.69-4.49,3.66-5.37,5.68l-1.42,6.52c-10.62,14.27-22.36,27.54-35.22,39.83l-7.05-2.13c-26.42,17.2-60.69,16.6-88.27,3.23-9.04-1.09-24.96-5.88-21.25-16.73,2.04-11.81,19.57-8.69,25.6-.12,8.39-1.11,16.66.6,24.82,5.14,15.41-.98,14.45-11.7.37-6.2-5.86-1.05-9.51-5.48-10.94-13.29-21.22,5.74-16.12-17.66-4.78-27.91,22.84,3.68,6.74-4.94-7.29-2.33-3.74-9.01-7.84-8.17-12.28,2.54-6.12,5.79-13.47,3.89-22.05-5.71-8.32,6.67-14.69,6.67-19.11,0-9.1,11.4-16.57,6.97-25.64-1.65-20.55-2.15-41.15-2.81-61.79-1.98-3.85-6.46-9.21-6.03-16.08,1.28-11.55,1.2-11.89,8.39-2.67,11.68,8.91-6.6,16.65-.74,18.24,9.52,13.36-6.78,22.69-6.65,27.98.4,7.01,6.79-24.87,18.05-27.7,17.42l-27.18-12.58c-12.27-1.16-21.98-4.69-29.13-10.58-4.06-1.65-5.12-1.45-3.19.6-3.1,5.83-9.85,9.25-20.27,10.26-17.2,10.86-33.95,22.94-50.27,36.24l-30.27,7.68c-1.68-1.18-4.35-.33-5.87-.14-44.44,10.29-78.01-7.01-115.48-27.48l-10.52-3.68c-7.03.05-11.36-2.31-13.01-7.06l58.64-28.19c47.68-19,99.48-13.18,144.5,8.07,6.98,2.96,11.29,3.16,18.88,3.19,3.44-3.32,6.66-6.84,9.64-10.57-5.93-2.95-3.66-9.74,2.83-8.46l10.6-9.02c.98.29,2.77.2,3.4-.36,4.9,1.88,9.89,1.93,14.96.13,19.03-6.99,35.11-5.35,45.72-15.75,8.59,2.92,15.11,6.02,22.76,6.16,5.83-1.76,15.56-3.33,17.61,3.28,6.51,7.49,14.61,1.26,21.93,2.24,15.37,2.05,25.6,1.62,35.32-11.62,4.97-2.43,5.15-4.12.52-5.08-.08-5.34,2.17-10.05,6.33-13.26,3.28-2.53,10.4,1.55,14.51.54,20.46-5.07,31.33-22.43,58.24-16.76,2.5-8.29,7.89-9.09,13.91-8.28,9.32-8.83,28.76-9.03,39.42-.93l18.99-6.36c6.35-8.71,11.75-9.9,16.21-3.59Z"/>
        <path class="cls-22" d="M357.47,167.8c-6.17-1.81-9.46,6.66-13.44,8.57-8.56,4.11-16.14,4.33-23.88,8.84l-9.93-8.65c-9.53,2.65-18.61,3.29-27.35,2.11,1.95-7.21-5.84-11.23-12.94-13.78.66-4.64,4.83-6.67,6.28-8.3,1.57-1.77,1.37-7.09-2.94-6.66-2.87.29-6.58.95-8.52-1.26-.83-.94-1.16-3.21.8-4.97,4.34-3.9,4.61,3.7,14.43,1.52,4.62-1.03,9.84-6.9,6-10.77-2.38-2.4-9.07-.31-11.62,5.14l-26.74-14.98c-5.17,6.84-11.7,9.4-20.57,3.93-2.42,3.58-6.25,0-4.28-1.58.95-.76,1.74-1.55,2.19-2.72,46.91-15.36,106.1.98,132.52,43.55Z"/>
        <path class="cls-22" d="M213.32,128.65c7.28,2.36-9.91,18.9-22.29,20.13-10.54,1.05-28.7,39.36-33.19,31.27-1.3-2.34-.66-5.77.37-7.35,14.92-18.6,33.12-35.04,55.1-44.05Z"/>
        <path class="cls-29" d="M436.44,1595.08l-20.67,11.85-10.3-14.19-59.25.7c-8.57.1-8.98-1.32-14.5-7.71l-11.9-13.77c-5.21-6.04-17.71-6.07-22.12-13.91l-6.57,10.16c-11.12-2.02-13.36-10.97-19.27-17.29-8.71-9.32-26.76-4.1-38.14-4.12-10.69-.02-18.54-1.38-25.31,5.11-.25-3.64-1.62-7.39-3.16-8.17-2.45-1.24-7.02,1.18-9.97,2.34l-7.42,2.94c-3.44,1.36-4.14-5.36-4.2-8.04-4.74-5.13-13.61,2.52-18.36,3.42-10.27,1.96-18.4,3.55-28.51,7.42-9.27,3.55-19.77-8.12-23.54-15.32-6.34,1.7-11.26-2.03-18.25-5.47-12.57-6.19-26.48,23.62-37.38,12.83.39-9.19-2.97-14.36-9.09-20.37l-5.01-4.93c-1.23-1.21-5.07,3.13-7.32,4.84-4.92-4.84-1.56-14.47-.5-21.04,2.08-12.96-32.32-10.33-56.12,10.69-3.72.44-9.95,1.83-13.24,4.92-1.94-3.82-3.63-10.09-6.61-12.11-9.31-6.28-15.63,13.02-26.1,2.94,6.07-5.84,11.76-13.95,19.95-16.71,3.1,1.99,7.46,6.07,9.23,4.17,3.09-3.3,7.07-6.81,6.91-9.4-.27-4.54-7.62-7.45-11.34-6.92,63.63-45.29,155.53-40.92,212.38,19.29,4.72,5,12.06,7.13,14.23,15.41l44.1-27.09c43.13-19.85,91.76-17.91,133.71,4.12,48.59,25.53,50.15,71.5,73.63,103.37Z"/>
        <path class="cls-45" d="M339.72,1609.78c.55,6.13,27.08,22.72,28.94,22.07s3.94-.94,5.98-1.08l8.42,4.89c-3.36,3.29,8.14,9.71,2.51,18.84-1.84,2.99-13.54-.83-17.42,6.21-1.36,2.47,1.46,3.79,2.52,3.3.97-.45,5.67.87,6,1.91,1.38,4.46-2.77,8.9-7.98,9.76-2.87.47-6.56.05-10.33-2.56-6.9-4.78-15.17.73-21.63.32-8.1-.52-12.11-12.31-15.49-16.14-5.15-.25-9.64,3.83-2.07,6.13.21,5.16-4.02,8.83-8.25,9.43-3.5.5-10.58,2.56-11.44-1.9l-1.49-7.73c-.33-1.72-5.4-2.07-6.75.41l-3.79,6.93c-1.96,3.57-3.21,9.37-6.69,9.54-7.53.37-10.82-11.46-16.88-9.48-13.1,4.28-14.06-4.14-17.17-2.12l-7.8,5.07c-6.23,4.05-15.31,1.72-23.18.55l13.62-14.68c-4.72-4.98-13.2-3.03-15.15-.46.96,4.7-1.8,8.99-5.27,9.97,3.43-.97-6.26-4.96-18.61-8.82-18.44,7.67-48.06,14.09-49.17,12.78-1.32-1.55-2.64-7.19-5.55-6.83-6.25.76-13.37,3.34-18.23-1.75,18.55-7.94,34.13-19.87,49.37-33.98,28.18-26.08,62.75-37.62,101-35.87,25.62,1.18,50.73,3.06,71.98,15.27Z"/>
        <path class="cls-34" d="M339.72,1609.78c11.91,6.84,23.15,14.16,34.92,20.99-.19,3.55-2.29,7.52-4.84,8.16-4.58,1.14-6.63-3.77-9.79-6.2l-20.83-16.04c-1.55-1.2-2.22-2.86-3.7-3.8-.85-.54-.74-2.23.11-2.64,1.69-.8,3.2-.8,4.14-.48Z"/>
        <path class="cls-9" d="M115.42,271.74c5.41-14.52,33.3-9.45,46.2-5.25,13.7,4.46,41.71,18.57,39.4,33.89l21.25,16.73c-5.66,2.78-10.71.95-17.72.12-2.75,4.88-3.29,8.65-8.23,11.53-1.32-5.44-3.8-7.59-7.93-7.45-3.43.11-4.66,3.56-5.95,6.8-2.2-1.53-5.68-4.12-7.43-3.78-1.3.25-4.32,3.79-5.57,3.37-5.49-1.83-15.66-10.98-21.62-8.81-10.3,3.75-15.05,1.97-24.72-.42-11.31-2.79-26.41-.47-38.11.74l-18.75,1.93c-21.46,2.21-64.12,2.97-78.82-.89-5.64-1.48-12.79-.28-17.61,2.15-13.92-5.22-28.32-6.84-42.39-1.6,20.9-7.72,40.84-18.77,57.12-35.73,12.08-12.58,27.98-16.63,43.68-18.46.58-2.63,1.64-2.82,3.19-.6,19.92.42,39.46,5.92,57.01,17.92l26.99-12.17Z"/>
        <path class="cls-8" d="M625.43,316.61l-.73,6.12-22.6-.26-103.69.55c-6.74.04-12.96-4.83-20.68.88-1.32.98-5.6-1.65-5.13-3.01.36-1.05,1.25-1.21-.09-3.99,20.23-9.89,30.03-41.11,64.16-43.97,18.73-1.57,39.84,4.34,52.67,19.64,9.59,11.44,21.03,22.17,36.09,24.04Z"/>
        <path class="cls-9" d="M408.52,307.97c-.15,3.43,2.08,4.88,6.7,4.36,3.47.8,6.64,2.47,9.25,5.34-5.6-1.98-13.09,2.83-18.94,4.07-16.58,3.53-32.08-5.17-45.14,2.59-21.97-4.76-36.06,4.4-49.84-10.47,25.87-16.84,28.77-41.35,43.68-44.22,9.94-1.91,20.74,3.55,27.9,10.98l26.38,27.34Z"/>
        <path class="cls-16" d="M1046.28,751.14c-3.52,1.15-8.51-3.47-8.72,4.33-.92,3.76,1.58,7.31,5.29,7.69l7.67,7.17c1.87,1.75,1.22,8.91-2.75,8.08l-24.21-5.11c-15.11,7.9-32.16,9.3-46.89-.3-24.07,8.52-50.37,8.65-73.66,1.37-15.99,14.27-10.47-9.57-38.72-17.88,32.14-39.91,83.55-61.37,133.66-45.21,22.1,7.13,38.13,20.8,48.34,39.86Z"/>
        <path class="cls-17" d="M820.67,793.75c25.35-3.82,47.39,5.04,67.11,19.31-.13,3.13-.51,5.45-1.58,6.64-4.43,4.92-17.99,1.98-19.73,6.11l-4.29,10.21c-.95,2.27-6.55.33-6.29-.52.39-1.26,5.41-4.45,5.28-5.77-.61-6.43-15.15-9.84-19.01-4.38,1.94,3.55,6.48,9.17,4.54,12.71-3.35,6.12-20.22,3.67-20.91,3.23-2.87-1.84-3.69-8.62.38-11.18,1.52-.96,2.54-2.52,2.35-3.45s-2.94-2.08-5.7-2.01c-3.48,10.25-11.55,15.6-22.64,13.15-2.56-.57-10.24,1.79-10.31-4.26,2.17-1.15,6.92-7.43,3.57-9.8-6.63.16-13.32,2.22-19.02-1.3l12.09-13.92c8.24-9.49,22.36-12.99,34.17-14.77Z"/>
        <path class="cls-6" d="M1191.32,818.68c15.61,15.33,32.25,14.11,52.21,11,21.16,7.35,36.61,7.07,56.81-2.65,6.42-11.2,20.07-13.38,31.28-7.33,19.78,20.73,47.47,5.33,81.03,22.65l-21.92,2.63c-4.73.57-3.93,12.47-2.24,14.46l-16.82-1.43c-4.33-.37-6.64,6.15-9.05,8.78-7.21,1.64-16.07-2.87-21.71-6.94l-7.57,9.86c-1.7,2.21-6.66-2.95-10.44-3.14l-19.01-.95c.36,2.77.16,5.33-.72,5.13l-6.71-1.53-20.16,12.83c-16.34-5.61-31.97-5.1-49.03-3.1l-17.82-6.41c-17.87.61-31.06.37-47.87-7.3-6.66-3.04-21.24-1.55-28.55.69-9.5,10.83-20.69,14.16-34.99,13.02-8.34-.67-17.39,3.54-26.84-1.51-5.28-2.82-12.1,4.5-15.94,4.52l-10.14-4.53-8.92,7.21c-13.28.51-28.9-4.56-41.21.7.82,3.35,1.8,4.6,2.48,5.58,1.81,2.58-4.73,5.83-4.94,3.51-.48-5.16-.91-10.28-3.54-10.76l-11.88-2.18c-1.37-.25,1.32-5.79,2.42-6.7,1.19-.99.12-3.74-2.33-5.21s-4.98,1.77-6.66,3.91c-4.14-.78-8.75-8.17-6.32-12.15,2.97-4.85,3.74-7.97,1.19-11.4-3.14-4.23-6.74-3.17-12.01-2.38-2.67.4-5.28-6.2-5.47-7.93,31.76,3.84,62.57.41,92.45-14.2,55.54-27.15,91.9-32.31,150.94-6.79Z"/>
        <path class="cls-34" d="M415.21,312.33c-.89,2.06-3.97,3.32-7.61,2.16-2.41-.77-1.33-4.94.92-6.52l6.7,4.36Z"/>
        <path class="cls-27" d="M983.2,1992.92c-17.69,1.76-32.49,10.24-47.66,20.17-11.39,7.45-26.33,4.13-37.09,2.13,6.96-2.12,16.53-5.68,21.47-11.51,6.68-7.88,14.16-4.35,20.86-6.52,14.53-4.72,29-9.83,42.42-4.27Z"/>
        <path class="cls-22" d="M46,237.22c-1.67,1.48-3.54,5.67-7.44,5.3-3.08-.29-6.02-2.05-7.52-5.43,4.16-3.71,10.34-.46,14.96.13Z"/>
        <path class="cls-22" d="M189.34,221.53l.52-5.08c3.93-.22,8.89-1.88,13.21,3.19-4.84,3.99-9.63,3.24-13.73,1.88Z"/>
        <path class="cls-22" d="M132.09,230.91c-3.26-3.76-12.86-3.19-17.61-3.28,2.75-2.89,6.5-2.66,10.51-2.94,4.16-.29,8.2.63,7.11,6.22Z"/>
        <path class="cls-22" d="M252.59,165.53c4.44-4.56,7.28-.26,6.48,2.61-.4,1.43-1.84,3.59-4.13,4.56-1.8.76-6.08-3.34-2.35-7.17Z"/>
        <path class="cls-39" d="M983.15,1266.27c-7.36,4.93-12.41,10.07-21.11,9.2-17.94-15.13-46.91-20.31-66.19-3.39-10.23,8.98-18.19,17.22-33.52,19.1-17.04,2.09-37.81,2.45-54.03-6.11-16.3-8.61-32.93-13.5-50.64-8.26.8-2.32,2.21-4.21,2.69-6.98-18.71-7.11-34.12-21.88-37.28-40.03,2.81-.44,4.38-2.51,6.24-3.3,12.45-5.33,29.67-5.76,40.25,5.14,8.22,8.47,15.6,13.76,26.94,13.09,10.44-.62,15.96-6.18,23.42-14.03,22.58-23.75,60.23-19.8,81.28,5.13,20.63-18.48,51.36-17.23,68.5,3.26l13.45,27.19Z"/>
        <path class="cls-5" d="M267.9,1029.85c-5.26,8.85-15.53,8.49-11.82,23.26l-12.26,5.06c-25.38,10.47-26.65-11.67-51.38-8.53-4,2.5-7.04,5.62-9.11,9.36-4.72,3.23-8.6,4.62-13.96,5.46,2.44-6.25-.07-12.46-5.86-15.96,4.54-1.18,9.26-2.04,10.75-5.18,1.03-2.17.68-5.72.9-11.67,3.04.19,6.48,2.81,10.5-1.39-4.91-3.93-8.29-10.76-6.2-14.39,9.15-15.89,23.64-26.88,40.84-26.19,30.04,1.2,33.84,20.08,47.61,40.16Z"/>
        <path class="cls-20" d="M192.45,1049.65c-.73,5.59-5.53,6.91-9.11,9.36-2.85-3.05-2.91-7.83-.2-8.18l9.31-1.19Z"/>
        <path class="cls-29" d="M17.04,246.47c-1.09,2.41-2.81,5.54-2.83,8.46-.5,4.69-5.35,9.05-9.64,10.57-2.4,4.05-6.65,7.07-11.97,5.68-3.59-.94-6.03-4.79-6.92-8.87,5.67.04,11.19-3.08,13.68-8.53.92,1.03,3.42,2.45,4.63,1.92,4.1-1.82,2.36-14.24,7.5-12.36,1.99.72,3.68,1.95,5.54,3.14Z"/>
        <path class="cls-29" d="M2.75,245.55l-.11-17.93c4.13,5.91,2.72,11.45.11,17.93Z"/>
        <path class="cls-22" d="M201.03,300.38c-21.6-24.81-53.56-39.24-85.6-28.64-15.99-2.25-34.65,12.35-33.89,2.8.4-5.1-1.09-8.39-4.59-10.42-1.8-1.05-5.31,4.46-8.15,4.22-10.07-.83-15.33-16.75-9.38-21.95,15.41,3.82,20-20.72,30-2.28,25.85-7.67,46.21,5.92,64.25-.12,2.55,2.92,6.12,11.47,11.41,9.68,3.92-1.33,6.88-5.49,8.03-11.6,5.07,2.44,7.08,7.81,9.52,10.96,4.25-1.8,5.68-4.94,5.67-6.18,0-.83-1.31-2.24-2.21-3.36-2.51-3.16-1.7-6.08.91-8.25,1.03-.86,13.12.2,13.13,3.11.01,3.66-2.59,3.78-4.68,7.51,4.1,3.44,9.9,7.52,14.22,12.29l13.16-19.95,11.97,15.82c1.23-7,3.39-10.73,6.57-15.95-4.24-1.18-7.64-3.65-7.78-5.7-.36-5.29,7.5-17.7,15.55-19.28,4.29-.84,8.76,3.63,12.78,5.43,1.27.56,5.78-1.86,7.11-1.62,1.06.19,2.15,2.42,1.25,3.66l-2.92,4.01c-5.28,7.26-10.88,12.48-9.95,20.03-5.91-2.61-14.81-5.16-16.27,3.46,7.93,2.25,15.38,9.67,10.79,16.36-2.32,2.75-11.78-.66-14.1-2.18-3.32,8.49-6.83,14-6.32,20.98,5.39-3.17,11.08-4.46,13.74-2.31.2.16,6.88,22.09,7.67,11.69.13-1.7.7-6.19,4.52-8.16,8.65,19.72,20.3,9,24.75,19.75,1.46,3.53-1.58,8.07-3.48,6.59-11.28-8.8-15.84-.95-25.87.37-7.02.92-18.18-11.04-28.65-3.36-5.1-12.51-13.91-8.98-23.17-7.4Z"/>
        <path class="cls-22" d="M309.65,302.94c1.89,7.5-14.9,18.96-22.83,12.67,3.7-5.09,11.77-3.22,12.8-7.66.95-4.12,1.65-8.24.35-13.48,2.58-.73,8.03,1.89,9.69,8.47Z"/>
        <path class="cls-22" d="M227.09,225.78c-3.55.79-4.76,2.74-5.54,3.77-1.63,2.17-2.76.48-2.97-.52-.76-3.49-.33-5.77,2.09-7.8,2.47-2.07,4.8-2.75,8.06-1.9,1.93.51,3.18,5.37-1.64,6.44Z"/>
        <path class="cls-22" d="M4.56,265.49c.22-5.45,4.11-9.9,9.64-10.57-.02,2.39,1.31,6.93-.11,8.72-2.14,2.69-7.82,1.22-9.53,1.84Z"/>
        <path class="cls-22" d="M31.42,265.99c-.91-.57-2.68-.5-3.19.6l-8.45-1.05c.61-4.43,4.02-5.69,5.88-4.7,2.7,1.44,4.61,2.86,5.76,5.15Z"/>
        <path class="cls-34" d="M330.92,1654.57c3.08-2.57,4.05.85,4.79,1.52,2.4,2.2,1.63,5.18-.26,5.88-.99.36-4.98,1.01-5.79.32-1.21-1.03-1.56-5.36,1.26-7.72Z"/>
      </g>
    </g>
  </g>
</svg>