<?xml version="1.0" encoding="UTF-8"?>
<svg xmlns="http://www.w3.org/2000/svg" viewBox="0 0 99.13 52.69">
  <defs>
    <style>
      .cls-1 {
        fill: #002238;
      }

      .cls-2 {
        isolation: isolate;
      }

      .cls-3 {
        mix-blend-mode: multiply;
      }

      .cls-4 {
        fill: #cfcfcf;
      }
    </style>
  </defs>
  <g class="cls-2">
    <g id="Capa_2" data-name="Capa 2">
      <g id="Layer_1" data-name="Layer 1">
        <g>
          <g class="cls-3">
            <path class="cls-4" d="M83.88,52.69H13.56c-5.01,0-9.25-2.38-11.63-6.52-2.63-4.58-2.56-10.57.17-15.27,1.71-2.94,5.89-7.74,15.03-8.24-.2-2.18.15-4.37,1.03-6.41,2.18-5.08,7.56-8.33,13.05-7.93,2.32.17,4.5.92,6.39,2.18,4.04-6.45,11.72-9.73,19.27-8.04,5.73,1.28,10.51,5.33,12.76,10.73,1.81-.37,3.69-.35,5.49.05,6.49,1.45,10.79,7.46,10.3,13.91,3.95.17,7.33,2.04,9.47,5.28,2.69,4.07,2.96,9.66.68,13.89-2.21,4.11-6.37,6.37-11.69,6.37ZM18.7,25.62c-6.48,0-11.45,2.41-14,6.79-2.21,3.78-2.27,8.59-.16,12.26,1.86,3.23,5.07,5.02,9.03,5.02h70.32c4.17,0,7.39-1.7,9.05-4.8,1.77-3.29,1.55-7.64-.54-10.82-1.87-2.84-4.91-4.22-8.57-3.9l-2.04.18.45-2c1.22-5.5-2.25-10.96-7.75-12.19-1.75-.39-3.59-.31-5.31.24l-1.42.45-.46-1.41c-1.69-5.13-5.82-8.89-11.06-10.06-6.8-1.52-13.71,1.78-16.82,8.03l-.87,1.76-1.47-1.3c-1.69-1.5-3.79-2.39-6.08-2.55-4.25-.32-8.39,2.2-10.07,6.12-.87,2.02-1.07,4.22-.58,6.35l.43,1.85h-1.9c-.06-.01-.11-.01-.17-.01Z"/>
          </g>
          <path class="cls-1" d="M85.9,50.67H15.58c-5.01,0-9.25-2.38-11.63-6.52-2.63-4.58-2.56-10.57.17-15.27,1.71-2.94,5.89-7.74,15.03-8.24-.2-2.18.15-4.37,1.03-6.41,2.18-5.08,7.56-8.33,13.05-7.93,2.32.17,4.5.92,6.39,2.18C43.66,2.03,51.34-1.25,58.9.44c5.73,1.28,10.51,5.33,12.76,10.73,1.81-.37,3.69-.35,5.49.05,6.49,1.45,10.8,7.46,10.3,13.91,3.95.17,7.33,2.04,9.47,5.28,2.69,4.07,2.96,9.66.68,13.89-2.21,4.11-6.37,6.37-11.69,6.37ZM20.72,23.6c-6.48,0-11.45,2.41-14,6.79-2.2,3.78-2.27,8.59-.16,12.26,1.86,3.23,5.07,5.02,9.03,5.02h70.32c4.17,0,7.39-1.7,9.05-4.8,1.77-3.29,1.55-7.64-.54-10.82-1.87-2.84-4.91-4.22-8.57-3.9l-2.04.18.45-2c1.22-5.5-2.25-10.96-7.75-12.19-1.75-.39-3.59-.31-5.31.24l-1.42.45-.46-1.41c-1.69-5.13-5.82-8.89-11.06-10.06-6.8-1.52-13.71,1.78-16.82,8.03l-.87,1.76-1.47-1.3c-1.69-1.5-3.79-2.39-6.08-2.55-4.25-.32-8.39,2.2-10.07,6.12-.87,2.02-1.07,4.22-.58,6.35l.43,1.85h-1.9c-.06-.01-.11-.01-.17-.01Z"/>
        </g>
      </g>
    </g>
  </g>
</svg>