<?xml version="1.0" encoding="UTF-8"?>
<svg id="Capa_1" xmlns="http://www.w3.org/2000/svg" version="1.1" viewBox="0 0 99.1 52.7">
  <!-- Generator: Adobe Illustrator 30.3.0, SVG Export Plug-In . SVG Version: 2.1.3 Build 182)  -->
  <defs>
    <style>
      .st0 {
        fill: #002238;
      }
    </style>
  </defs>
  <path class="st0" d="M85.9,50.7H15.6c-5,0-9.2-2.4-11.6-6.5-2.6-4.6-2.6-10.6.2-15.3,1.7-2.9,5.9-7.7,15-8.2-.2-2.2.1-4.4,1-6.4,2.2-5.1,7.6-8.3,13-7.9,2.3.2,4.5.9,6.4,2.2C43.7,2,51.3-1.2,58.9.4c5.7,1.3,10.5,5.3,12.8,10.7,1.8-.4,3.7-.4,5.5,0,6.5,1.4,10.8,7.5,10.3,13.9,3.9.2,7.3,2,9.5,5.3,2.7,4.1,3,9.7.7,13.9-2.2,4.1-6.4,6.4-11.7,6.4h0ZM20.7,23.6c-6.5,0-11.4,2.4-14,6.8-2.2,3.8-2.3,8.6-.2,12.3,1.9,3.2,5.1,5,9,5h70.3c4.2,0,7.4-1.7,9.1-4.8,1.8-3.3,1.6-7.6-.5-10.8-1.9-2.8-4.9-4.2-8.6-3.9l-2,.2.4-2c1.2-5.5-2.2-11-7.8-12.2-1.8-.4-3.6-.3-5.3.2l-1.4.4-.5-1.4c-1.7-5.1-5.8-8.9-11.1-10.1-6.8-1.5-13.7,1.8-16.8,8l-.9,1.8-1.5-1.3c-1.7-1.5-3.8-2.4-6.1-2.6-4.2-.3-8.4,2.2-10.1,6.1-.9,2-1.1,4.2-.6,6.3l.4,1.9h-1.9c0,0-.1,0-.2,0h0Z"/>
</svg>