<?xml version="1.0" encoding="UTF-8"?>
<svg id="Capa_1" xmlns="http://www.w3.org/2000/svg" version="1.1" viewBox="0 0 96.6 59.4">
  <!-- Generator: Adobe Illustrator 30.3.0, SVG Export Plug-In . SVG Version: 2.1.3 Build 182)  -->
  <defs>
    <style>
      .st0 {
        fill: #002238;
      }
    </style>
  </defs>
  <path class="st0" d="M79.6,57.3H16.7c-7.9,0-14.1-8.7-14.7-16.5-.5-7.1,4.9-14.8,11.2-16.6,0-.3,0-.6,0-.9,0-6.1,5-11.1,11.1-11.1s2.4.2,3.5.6C29.4,5.3,35.9,0,43.7,0s7.6,1.4,10.5,3.8c2-1.4,4.4-2.2,6.9-2.2,6,0,11,4.5,11.9,10.2.3,0,.6,0,.9,0,9.1,0,16.4,6.9,16.9,15.9,3.6,3.2,5.6,7.8,5.6,12.6,0,9.4-7.6,17-17,17h0ZM24.3,15.2c-4.4,0-8,3.6-8,8.1s0,1.2.2,1.8l.4,1.6-1.6.2c-5.5.7-10.6,7.7-10.1,13.8.5,6.5,5.6,13.8,11.7,13.8h62.9c7.7,0,14-6.3,14-14s-1.8-8.1-5.1-10.8l-.5-.4v-.7c-.2-7.6-6.3-13.6-14-13.6s-1.4,0-2.1.2l-1.7.2v-1.7c0-4.9-4.2-8.9-9.1-8.9s-4.3.8-6,2.3l-1,.9-1-1c-2.5-2.5-5.8-3.9-9.4-3.9-6.9,0-12.6,5.2-13.3,12l-.2,2.3-2-1.1c-1.2-.7-2.6-1-3.9-1h0Z"/>
</svg>