<?xml version="1.0" encoding="UTF-8"?>
<svg xmlns="http://www.w3.org/2000/svg" viewBox="0 0 91.85 58.52">
  <defs>
    <style>
      .cls-1 {
        fill: #002238;
      }

      .cls-2 {
        isolation: isolate;
      }

      .cls-3 {
        mix-blend-mode: multiply;
      }

      .cls-4 {
        fill: #cfcfcf;
      }
    </style>
  </defs>
  <g class="cls-2">
    <g id="Capa_2" data-name="Capa 2">
      <g id="Layer_1" data-name="Layer 1">
        <g>
          <g class="cls-3">
            <path class="cls-4" d="M76.57,58.52H7.55c-4.13,0-7.48-3.36-7.48-7.48,0-2.01.79-3.89,2.18-5.28-1.46-2.1-2.25-4.6-2.25-7.19,0-6.47,4.9-11.82,11.18-12.53.5-4.21,3.77-7.57,7.93-8.23.43-8.78,7.7-15.79,16.58-15.79,5.82,0,11.09,2.97,14.11,7.85,1.97-1.04,4.15-1.58,6.4-1.58,6.48,0,11.98,4.48,13.4,10.65.56-.07,1.13-.11,1.7-.11,7.58,0,13.75,6.17,13.75,13.75,0,.78-.07,1.56-.2,2.33,3.13,2.51,4.97,6.3,4.97,10.35,0,7.31-5.94,13.25-13.25,13.25ZM12.63,28.96c-5.31,0-9.63,4.31-9.63,9.61,0,2.37.87,4.65,2.46,6.42l1.18,1.31-1.49.95c-1.3.83-2.08,2.24-2.08,3.78,0,2.47,2.01,4.48,4.48,4.48h69.02c5.65,0,10.25-4.6,10.25-10.25,0-3.39-1.68-6.56-4.48-8.47l-.86-.59.25-1.01c.21-.85.32-1.73.32-2.6,0-5.93-4.82-10.75-10.75-10.75-.86,0-1.73.1-2.57.31l-1.66.41-.19-1.7c-.6-5.45-5.19-9.56-10.68-9.56-2.2,0-4.31.66-6.11,1.91l-1.43.99-.77-1.56c-2.31-4.69-6.99-7.6-12.21-7.6-7.5,0-13.6,6.1-13.6,13.6,0,.17,0,.34.01.51l.06,1.56h-1.71c-3.51.07-6.34,2.95-6.34,6.48l.07,1.78h-1.55Z"/>
          </g>
          <path class="cls-1" d="M78.6,56.49H9.58c-4.13,0-7.48-3.36-7.48-7.48,0-2.01.79-3.89,2.18-5.28-1.46-2.1-2.25-4.6-2.25-7.19,0-6.47,4.9-11.82,11.18-12.53.5-4.21,3.77-7.57,7.93-8.23.43-8.78,7.7-15.79,16.58-15.79,5.82,0,11.09,2.97,14.11,7.85,1.97-1.04,4.15-1.58,6.4-1.58,6.48,0,11.98,4.48,13.4,10.65.56-.07,1.13-.11,1.7-.11,7.58,0,13.75,6.17,13.75,13.75,0,.78-.07,1.56-.2,2.33,3.13,2.51,4.97,6.3,4.97,10.35,0,7.31-5.94,13.25-13.25,13.25ZM14.65,26.93c-5.31,0-9.63,4.31-9.63,9.61,0,2.37.87,4.65,2.46,6.42l1.18,1.31-1.49.95c-1.3.83-2.08,2.24-2.08,3.78,0,2.47,2.01,4.48,4.48,4.48h69.02c5.65,0,10.25-4.6,10.25-10.25,0-3.39-1.68-6.56-4.48-8.47l-.86-.59.25-1.01c.21-.85.32-1.73.32-2.6,0-5.93-4.82-10.75-10.75-10.75-.86,0-1.73.1-2.57.31l-1.66.41-.19-1.7c-.6-5.45-5.19-9.56-10.68-9.56-2.2,0-4.31.66-6.11,1.91l-1.43.99-.77-1.56c-2.31-4.69-6.99-7.6-12.21-7.6-7.5,0-13.6,6.1-13.6,13.6,0,.17,0,.34.01.51l.06,1.56h-1.71c-3.51.07-6.34,2.95-6.34,6.48l.07,1.78h-1.55Z"/>
        </g>
      </g>
    </g>
  </g>
</svg>