<?xml version="1.0" encoding="UTF-8"?>
<svg id="Capa_1" xmlns="http://www.w3.org/2000/svg" version="1.1" viewBox="0 0 91.8 58.5">
  <!-- Generator: Adobe Illustrator 30.3.0, SVG Export Plug-In . SVG Version: 2.1.3 Build 182)  -->
  <defs>
    <style>
      .st0 {
        fill: #002238;
      }
    </style>
  </defs>
  <path class="st0" d="M78.6,56.5H9.6c-4.1,0-7.5-3.4-7.5-7.5s.8-3.9,2.2-5.3c-1.5-2.1-2.2-4.6-2.2-7.2,0-6.5,4.9-11.8,11.2-12.5.5-4.2,3.8-7.6,7.9-8.2C21.6,7,28.8,0,37.7,0s11.1,3,14.1,7.8c2-1,4.2-1.6,6.4-1.6,6.5,0,12,4.5,13.4,10.6.6,0,1.1-.1,1.7-.1,7.6,0,13.8,6.2,13.8,13.8s0,1.6-.2,2.3c3.1,2.5,5,6.3,5,10.3,0,7.3-5.9,13.2-13.2,13.2h0ZM14.6,26.9c-5.3,0-9.6,4.3-9.6,9.6s.9,4.7,2.5,6.4l1.2,1.3-1.5,1c-1.3.8-2.1,2.2-2.1,3.8,0,2.5,2,4.5,4.5,4.5h69c5.7,0,10.2-4.6,10.2-10.2s-1.7-6.6-4.5-8.5l-.9-.6.2-1c.2-.8.3-1.7.3-2.6,0-5.9-4.8-10.8-10.8-10.8s-1.7.1-2.6.3l-1.7.4-.2-1.7c-.6-5.4-5.2-9.6-10.7-9.6s-4.3.7-6.1,1.9l-1.4,1-.8-1.6c-2.3-4.7-7-7.6-12.2-7.6-7.5,0-13.6,6.1-13.6,13.6s0,.3,0,.5v1.6c0,0-1.7,0-1.7,0-3.5,0-6.3,3-6.3,6.5v1.8c0,0-1.5,0-1.5,0h0Z"/>
</svg>