<?xml version="1.0" encoding="UTF-8"?>
<svg xmlns="http://www.w3.org/2000/svg" viewBox="0 0 96.6 59.36">
  <defs>
    <style>
      .cls-1 {
        fill: #002238;
      }

      .cls-2 {
        isolation: isolate;
      }

      .cls-3 {
        mix-blend-mode: multiply;
      }

      .cls-4 {
        fill: #cfcfcf;
      }
    </style>
  </defs>
  <g class="cls-2">
    <g id="Capa_2" data-name="Capa 2">
      <g id="Layer_1" data-name="Layer 1">
        <g>
          <g class="cls-3">
            <path class="cls-4" d="M77.6,59.36H14.7C6.77,59.36.61,50.64.03,42.82c-.52-7.06,4.88-14.8,11.23-16.64-.03-.31-.04-.62-.04-.93,0-6.09,4.96-11.05,11.05-11.05,1.19,0,2.38.19,3.5.57,1.63-7.4,8.15-12.75,15.93-12.75,3.89,0,7.58,1.36,10.52,3.84,2.02-1.42,4.44-2.2,6.93-2.2,5.99,0,11.02,4.46,11.9,10.23.32-.02.63-.03.94-.03,9.05,0,16.37,6.92,16.94,15.87,3.59,3.22,5.64,7.79,5.64,12.64,0,9.36-7.62,16.98-16.98,16.98ZM22.28,17.21c-4.44,0-8.05,3.61-8.05,8.05,0,.59.07,1.19.2,1.77l.36,1.59-1.62.22c-5.47.74-10.58,7.69-10.14,13.76.48,6.49,5.57,13.76,11.68,13.76h62.9c7.71,0,13.98-6.27,13.98-13.98,0-4.18-1.85-8.1-5.07-10.77l-.52-.43-.02-.68c-.19-7.64-6.33-13.62-13.97-13.62-.69,0-1.4.05-2.09.16l-1.7.25-.03-1.71c-.07-4.91-4.12-8.9-9.03-8.9-2.22,0-4.35.81-6.01,2.29l-1.05.94-1-1c-2.51-2.5-5.85-3.88-9.39-3.88-6.91,0-12.61,5.18-13.26,12.05l-.22,2.3-2.01-1.13c-1.2-.68-2.56-1.03-3.94-1.03Z"/>
          </g>
          <path class="cls-1" d="M79.63,57.34H16.73c-7.93,0-14.1-8.72-14.67-16.54-.52-7.06,4.88-14.8,11.23-16.64-.03-.31-.04-.62-.04-.93,0-6.09,4.96-11.05,11.05-11.05,1.19,0,2.38.19,3.5.57,1.63-7.4,8.15-12.75,15.93-12.75,3.89,0,7.58,1.36,10.52,3.84,2.02-1.42,4.44-2.2,6.93-2.2,5.99,0,11.02,4.46,11.9,10.23.32-.02.63-.03.94-.03,9.05,0,16.37,6.92,16.94,15.87,3.59,3.22,5.64,7.79,5.64,12.64,0,9.36-7.62,16.98-16.98,16.98ZM24.3,15.19c-4.44,0-8.05,3.61-8.05,8.05,0,.59.07,1.19.2,1.77l.36,1.59-1.62.22c-5.47.74-10.58,7.69-10.14,13.76.48,6.49,5.57,13.76,11.68,13.76h62.9c7.71,0,13.98-6.27,13.98-13.98,0-4.18-1.85-8.1-5.07-10.77l-.52-.44-.02-.68c-.19-7.64-6.33-13.62-13.97-13.62-.69,0-1.4.05-2.09.16l-1.7.25-.03-1.71c-.07-4.91-4.12-8.9-9.03-8.9-2.22,0-4.35.81-6.01,2.29l-1.05.94-1-1c-2.51-2.5-5.85-3.88-9.39-3.88-6.91,0-12.61,5.18-13.26,12.05l-.22,2.3-2.01-1.13c-1.2-.68-2.56-1.03-3.94-1.03Z"/>
        </g>
      </g>
    </g>
  </g>
</svg>